<?xml version="1.0" encoding="utf-8"?>
<!-- Generator: Adobe Illustrator 21.0.2, SVG Export Plug-In . SVG Version: 6.00 Build 0)  -->
<svg version="1.1" id="Слой_1" xmlns="http://www.w3.org/2000/svg" xmlns:xlink="http://www.w3.org/1999/xlink" x="0px" y="0px"
	 viewBox="0 0 337.4 58.1" style="enable-background:new 0 0 337.4 58.1;" xml:space="preserve">
<g class="lines" fill="none" fill-rule="evenodd" stroke="currentColor" stroke-width="1">
	<path d="M1.5,56.1C0.9,53,0.5,49.3,0.3,45C0.1,40.8,0,36.4,0,31.8c0-4.5,0.1-9,0.3-13.5C0.5,14,0.8,10,1.1,6.5
		c0.8-1,1.9-2.1,3.3-3.4C5.7,1.9,6.8,0.9,7.7,0C7.5,0.7,7.1,3.3,6.4,7.8c-0.7,4.5-1.3,9.3-1.9,14.5c-0.6,5.2-1,10-1.2,14.4
		C3.2,41,3.5,43.5,4.2,44c0.3,0.6,0.9,0.8,1.8,0.6c0.9-0.3,1.9-0.8,2.9-1.6c1-0.8,1.9-1.9,2.7-3.1c0.8-1.2,1.2-2.5,1.2-3.9
		c0.5,2,0.9,4.9,1.2,8.7c0.3,3.8-0.1,7.3-1.3,10.7c-0.5,0.9-1.2,1.5-2.2,1.8c-1,0.3-2,0.4-3.2,0.4C6.2,57.5,5.1,57.3,4,57
		C2.9,56.7,2.1,56.4,1.5,56.1z"/>
	<path d="M27.1,44.2c-1.6,0.2-3.2,0.3-4.9,0.2c-1.7-0.1-3.3-0.3-4.9-0.8c0,1.1,0.1,2.3,0.2,3.6c0.1,1.2,0.6,2.4,1.3,3.4
		c0.3,0.1,0.5-0.1,0.8-0.7c0.3-0.6,0.5-1.4,0.6-2.4c0.9-0.1,1.8-0.1,2.8-0.1c0.9,0.1,1.8,0.1,2.8-0.1c0.1,0.4,0.1,0.9,0,1.5
		c-0.1,0.5-0.2,1-0.3,1.3c-1,2.4-2.2,4.2-3.6,5.1c-1.4,1-2.8,1.6-4.2,1.8c-1-2.1-1.7-4.7-2.2-7.8c-0.5-3.1-0.8-6.3-0.8-9.6
		c0-3.3,0.2-6.5,0.6-9.6s1.2-5.7,2.2-7.8c0.4-1,0.8-1.8,1.4-2.4c0.5-0.6,0.8-0.8,0.9-0.8c1.7,2.4,3.4,5.5,4.9,9.2
		c1.5,3.7,2.4,7.9,2.7,12.6c0,0.7,0,1.2,0,1.6C27.1,43.1,27.1,43.6,27.1,44.2z M16.3,38.6c0.6-0.1,1.4-0.1,2.3,0.1
		c0.9,0.2,1.6,0.1,2.2-0.2c0.1-1.8-0.2-3.9-1.1-6.2c-0.8-2.4-1.5-3.4-1.9-2.9c-0.4-0.2-0.6-0.1-0.8,0.4c-0.2,0.8-0.4,2.3-0.7,4.4
		C16,36.4,16,37.8,16.3,38.6z"/>
	<path d="M34.6,40.9c0.6,1.2,0.8,3.8,0.7,7.7c-0.1,3.9-0.5,6.7-1.1,8.5c-1.3,0.3-2.6,0.5-4.1,0.4L30,57.1c0.4-2.4,0.8-5.1,1-7.8
		c0.3-2.8,0.3-5.6,0.2-8.3c-0.5-0.1-1-0.2-1.5-0.1c-0.6,0-1.1,0-1.5,0c0-3.9,0-8,0.2-12.3s-0.1-8.3-0.6-12.2
		c-0.2-0.4-0.3-0.8-0.1-1.1c0.7-0.4,1.4-0.5,2.2-0.4c0.8,0.1,1.6,0.3,2.3,0.7c1,0.6,2.1,1.3,3.1,2.1c1,0.8,2,1.5,3.1,2.1l0.1,0.6
		c0.1,2.6,0.1,5.9,0.1,10c0,4.1-0.3,7.3-0.7,9.7c-0.5,0.4-1,0.5-1.6,0.3C35.7,40.2,35.2,40.4,34.6,40.9z"/>
	<path d="M39.2,37.7c0.4,0.2,0.8,0.9,1.1,2.1c0.3,1.2,0.7,1.9,1.1,2.1c0,1.8,0.2,3.3,0.5,4.5c0.3,1.2,0.7,2.1,1.2,2.5
		c0.4,0.4,0.9,0.4,1.3,0s0.8-1.4,1-3c-1.2-1.6-2.5-3.8-3.6-6.4c-1.2-2.6-2-5.8-2.5-9.7c0.3-2.8,0.8-5.7,1.4-8.6
		c0.6-3,1.5-4.8,2.7-5.4c1.5-1.6,3.1-1,4.7,1.8c1.6,2.7,2.9,5.5,3.8,8.3c-0.1,0.6-0.5,1.3-1.1,2.1c-0.6,0.8-1.4,1.6-2.2,2.4
		c-0.8,0.8-1.6,1.4-2.3,1.8c-0.7,0.5-1.3,0.6-1.6,0.4c0-2.1-0.3-3.3-0.9-3.4c-0.6-0.2-1.1,0.1-1.5,0.8c-0.5,0.7-0.7,1.5-0.8,2.5
		c0,1,0.4,1.6,1.4,1.8c2.4,0.7,4.4,2.4,6.1,5.1c1.7,2.7,2.4,4.7,2.4,5.9c-0.2,2-0.5,3.7-0.8,5c-0.4,1.3-0.8,2.6-1.2,3.9
		c-0.6,1.9-1.6,3.1-2.9,3.5c-1.4,0.4-2.7,0-4-1.3c-1.3-1.2-2.3-3.4-3.1-6.5C38.7,46.8,38.6,42.8,39.2,37.7z"/>
	<path d="M70.5,57.6c0.1,0.1,0.3-1,0.7-3.3c0.4-2.2,0.5-4.3,0.1-6c-0.6,0.5-1.1,1.5-1.7,2.8c-0.6,1.4-1.1,2.2-1.7,2.6
		c-0.1,0.6-0.3,0.7-0.5,0.2c-0.3-0.5-0.5-1.2-0.8-2.1c-0.3-0.9-0.6-1.8-0.8-2.8c-0.3-0.9-0.4-1.5-0.5-1.8c-0.2,2-0.1,3.8,0.4,5.3
		c0.5,1.6,0.8,3.2,0.9,4.9h-4.9l0-0.5c-0.8-3.6-1.4-7.9-1.7-13c-0.3-5.1-0.5-10.2-0.5-15.3s0.2-9.9,0.4-14.2s0.6-7.6,1-9.6
		c0.5-0.8,1.1-1.6,1.6-2.3c0.5-0.7,1.1-1.3,1.7-1.6c0.1,0.2,0.1,1.7,0.1,4.4c0,2.7,0,5.9,0.1,9.6c0.1,3.7,0.4,7.5,0.8,11.4
		s1.2,7.1,2.2,9.6c1.6-4.7,2.8-10,3.5-16c0.7-6,1-12.2,1.1-18.5c0.7-0.1,1.6,0.9,2.7,2.8c1.1,1.9,2.2,4.3,3.3,6.9
		c1.1,2.7,2.1,5.4,3,8.2c0.9,2.8,1.5,5,1.8,6.5c0.4,6.2,0.2,11.9-0.4,17c-0.6,5.1-1.5,10-2.7,14.8H70.5z"/>
	<path d="M96.4,57.7c-1,0-2,0-3.1,0c-1.1,0-2.1,0-3.1,0c0-0.4,0.1-0.9,0.1-1.4c0.1-0.5,0.1-1,0-1.4h-3.7c-0.1,0.4-0.1,0.9,0,1.4
		c0.1,0.5,0.1,1,0.1,1.4h-2.5c-0.6-3.7-1-7.8-1.1-12.2c-0.2-4.4,0-8.5,0.6-12.2c0.4-2.9,0.9-6.4,1.7-10.4c0.8-4.1,1.6-6.6,2.4-7.8
		c2.2,2.3,4,4.7,5.3,7c1.3,2.3,2.2,4.9,2.8,7.6c0.6,2.8,1,5.9,1.1,9.3c0.1,3.4,0.2,7.4,0.1,11.9c-0.1,1.3-0.2,2.5-0.3,3.5
		C96.8,55.4,96.6,56.5,96.4,57.7z M91.5,47.2c-0.1,0-0.2-0.9-0.2-2.6s-0.2-3.7-0.4-5.9c-0.2-2.2-0.7-4.3-1.3-6.4
		c-0.6-2.1-1.5-3.5-2.7-4.3c-0.1-0.1-0.3,0.6-0.8,1.9c-0.4,1.4-0.8,3-1.1,5c-0.3,2-0.5,4.1-0.6,6.4c-0.1,2.2,0.2,4.2,0.8,5.9
		L91.5,47.2z"/>
	<path d="M109.1,34.4c-0.6,3-1.1,5-1.6,6.1c-0.5,1.1-1.4,2.4-2.7,4.1V45c0.7,2,1.4,3.9,2,5.8s1,4,1.3,6.6c0,0-0.3,0.1-0.7,0.1
		s-1,0-1.6,0c-0.6,0-1.2,0-1.8,0.1c-0.6,0-1,0.1-1.2,0.1c0.1-2,0-3.7-0.3-5.1c-0.3-1.4-0.9-1.7-1.7-0.9c-0.1,0.7,0,1.8,0.4,3.3
		c0.4,1.4,0.6,2.2,0.6,2.3c-0.6,0.4-1.2,0.4-1.9,0.1c-0.7-0.3-1.4-0.3-2-0.1c-0.3-4.8-0.5-11.2-0.6-19.2c-0.1-8,0.2-15.6,0.9-22.8
		c0.2-0.2,0.8,0,1.8,0.6c1,0.6,1.7,1,2.2,1.3c-1.1,7.2-1.7,12-1.9,14.2s0,4.2,0.7,6H101c1-1,1.7-3.3,2-7c0.3-3.6,0.3-7.4-0.1-11.3
		c1.2,1,2.4,1.8,3.7,2.6s2.3,1.7,3,2.8c0.2-0.2,0.2,0.1,0.2,1.1c0,0.9-0.1,2-0.2,3.3c-0.1,1.2-0.2,2.4-0.3,3.6
		C109.2,33.5,109.1,34.2,109.1,34.4z"/>
	<path d="M122.9,44.2c-1.6,0.2-3.2,0.3-4.9,0.2c-1.7-0.1-3.3-0.3-4.9-0.8c0,1.1,0.1,2.3,0.2,3.6c0.1,1.2,0.6,2.4,1.3,3.4
		c0.3,0.1,0.5-0.1,0.8-0.7c0.3-0.6,0.5-1.4,0.6-2.4c0.9-0.1,1.8-0.1,2.8-0.1c0.9,0.1,1.8,0.1,2.8-0.1c0.1,0.4,0.1,0.9,0,1.5
		c-0.1,0.5-0.2,1-0.3,1.3c-1,2.4-2.2,4.2-3.6,5.1c-1.4,1-2.8,1.6-4.2,1.8c-1-2.1-1.7-4.7-2.2-7.8c-0.5-3.1-0.8-6.3-0.8-9.6
		c0-3.3,0.2-6.5,0.6-9.6s1.2-5.7,2.2-7.8c0.4-1,0.8-1.8,1.4-2.4c0.5-0.6,0.8-0.8,0.9-0.8c1.7,2.4,3.4,5.5,4.9,9.2
		c1.5,3.7,2.4,7.9,2.7,12.6c0,0.7,0,1.2,0,1.6C122.9,43.1,122.9,43.6,122.9,44.2z M112.1,38.6c0.6-0.1,1.4-0.1,2.3,0.1
		c0.9,0.2,1.6,0.1,2.2-0.2c0.1-1.8-0.2-3.9-1.1-6.2c-0.8-2.4-1.5-3.4-1.9-2.9c-0.4-0.2-0.6-0.1-0.8,0.4c-0.2,0.8-0.4,2.3-0.7,4.4
		C111.9,36.4,111.9,37.8,112.1,38.6z"/>
	<path d="M131.8,31.1c0.7,0.2,1.3,1.1,1.9,2.6c0.6,1.5,1.2,2.5,1.9,2.9c0,2.4,0.3,4.4,0.9,6c0.6,1.6,1.2,2.8,2,3.4
		c0.7,0.6,1.5,0.6,2.2,0.1c0.7-0.6,1.3-1.9,1.7-4.1c-2.1-2.2-4.2-5-6.2-8.5c-2-3.5-3.5-7.8-4.3-12.9c0.6-3.7,1.4-7.6,2.5-11.6
		s2.6-6.4,4.7-7.2c1.3-1,2.6-1.3,4-0.7c1.4,0.6,2.7,1.6,4,3.1c1.3,1.5,2.5,3.2,3.6,5.3c1.1,2,2.1,4,2.9,5.8
		c-0.2,0.7-0.8,1.7-1.9,2.8c-1.1,1.1-2.3,2.2-3.7,3.2c-1.4,1-2.7,1.8-4,2.4c-1.3,0.6-2.2,0.8-2.7,0.4c-0.1-2.8-0.6-4.3-1.5-4.5
		c-0.9-0.2-1.8,0.1-2.6,1c-0.8,0.9-1.2,2-1.3,3.3c-0.1,1.3,0.7,2.1,2.4,2.4c2,0.4,4,1.3,5.8,2.6c1.8,1.3,3.3,2.7,4.6,4.2
		c1.3,1.5,2.3,3,3,4.5c0.7,1.5,1,2.6,1,3.4c-0.3,2.7-0.8,4.9-1.4,6.6c-0.6,1.7-1.3,3.4-2,5.2c-1,2.6-2.7,4.1-5,4.6
		c-2.3,0.5-4.6,0-6.8-1.7c-2.2-1.6-4-4.5-5.3-8.6C130.9,43.2,130.8,37.9,131.8,31.1z"/>
	<path d="M158.3,56.6c-0.9-0.8-1.6-1.9-2.3-3.3s-1.2-2.9-1.6-4.5c-0.4-1.6-0.7-3-0.8-4.1c-0.1-5.9,0.2-11.7,1.1-17.4
		c0.8-5.7,2.3-9.8,4.5-12.2c0.7,0,1.5,0.9,2.4,2.7c0.9,1.8,1.7,4,2.5,6.6c0.8,2.6,1.5,5.4,2,8.3c0.6,2.9,0.9,5.6,1,7.9
		c-0.5,3.4-1.2,6.7-2.3,9.8c-1,3.1-2.2,5.3-3.5,6.6C160.1,57.5,159.2,57.4,158.3,56.6z M157.9,48c-0.1,2.1,0.1,3.5,0.7,4.2
		s1.1,1,1.8,0.7c0.6-0.3,1.2-0.9,1.8-2c0.5-1.1,0.8-2.4,0.7-4c-1.1-7.2-2.1-10.5-2.9-9.9C159.2,37.5,158.5,41.2,157.9,48z"/>
	<path d="M176.7,57.6c0,0,0.2-0.8,0.5-2.5c0.3-1.7,0.3-3.2,0.1-4.5c-0.4,0.4-0.8,1.1-1.3,2.1c-0.4,1-0.9,1.7-1.4,2
		c-0.1,0.9-0.5,0.4-1-1.4c-0.6-1.9-0.9-3-1-3.4c-0.2,1.5-0.1,2.9,0.3,4s0.6,2.4,0.6,3.7h-3.8l0-0.4c-0.6-2.7-1.1-5.9-1.3-9.8
		c-0.3-3.8-0.4-7.7-0.4-11.5c0-3.8,0.1-7.4,0.3-10.7c0.2-3.3,0.5-5.7,0.8-7.2c0.4-0.6,0.8-1.2,1.2-1.7c0.4-0.5,0.9-1,1.3-1.3
		c0.1,0.1,0.1,1.2,0.1,3.3c0,2,0,4.4,0.1,7.2c0.1,2.8,0.3,5.6,0.6,8.5c0.3,2.9,0.9,5.3,1.7,7.2c1.3-3.5,2.1-7.5,2.7-12
		c0.5-4.5,0.8-9.1,0.8-13.9c0.5,0,1.2,0.7,2.1,2.1c0.8,1.4,1.7,3.2,2.5,5.2c0.9,2,1.6,4.1,2.3,6.1c0.7,2.1,1.2,3.7,1.4,4.9
		c0.3,4.7,0.2,8.9-0.3,12.7c-0.5,3.8-1.2,7.5-2.1,11.1H176.7z"/>
	<path d="M199.1,44.2c-1.6,0.2-3.2,0.3-4.9,0.2c-1.7-0.1-3.3-0.3-4.9-0.8c0,1.1,0.1,2.3,0.2,3.6c0.1,1.2,0.6,2.4,1.3,3.4
		c0.3,0.1,0.5-0.1,0.8-0.7c0.3-0.6,0.5-1.4,0.6-2.4c0.9-0.1,1.8-0.1,2.8-0.1c0.9,0.1,1.8,0.1,2.8-0.1c0.1,0.4,0.1,0.9,0,1.5
		c-0.1,0.5-0.2,1-0.3,1.3c-1,2.4-2.2,4.2-3.6,5.1c-1.4,1-2.8,1.6-4.2,1.8c-1-2.1-1.7-4.7-2.2-7.8c-0.5-3.1-0.8-6.3-0.8-9.6
		c0-3.3,0.2-6.5,0.6-9.6s1.2-5.7,2.2-7.8c0.4-1,0.8-1.8,1.4-2.4c0.5-0.6,0.8-0.8,0.9-0.8c1.7,2.4,3.4,5.5,4.9,9.2
		c1.5,3.7,2.4,7.9,2.7,12.6c0,0.7,0,1.2,0,1.6C199.1,43.1,199.1,43.6,199.1,44.2z M188.3,38.6c0.6-0.1,1.4-0.1,2.3,0.1
		c0.9,0.2,1.6,0.1,2.2-0.2c0.1-1.8-0.2-3.9-1.1-6.2c-0.8-2.4-1.5-3.4-1.9-2.9c-0.4-0.2-0.6-0.1-0.8,0.4c-0.2,0.8-0.4,2.3-0.7,4.4
		C188.1,36.4,188,37.8,188.3,38.6z"/>
	<path d="M206.7,40.9c0.6,1.2,0.8,3.8,0.7,7.7c-0.1,3.9-0.5,6.7-1.1,8.5c-1.3,0.3-2.6,0.5-4.1,0.4l-0.2-0.4c0.4-2.4,0.8-5.1,1-7.8
		c0.3-2.8,0.3-5.6,0.2-8.3c-0.5-0.1-1-0.2-1.5-0.1c-0.6,0-1.1,0-1.5,0c0-3.9,0-8,0.2-12.3s-0.1-8.3-0.6-12.2
		c-0.2-0.4-0.3-0.8-0.1-1.1c0.7-0.4,1.4-0.5,2.2-0.4c0.8,0.1,1.6,0.3,2.3,0.7c1,0.6,2.1,1.3,3.1,2.1c1,0.8,2,1.5,3.1,2.1l0.1,0.6
		c0.1,2.6,0.1,5.9,0.1,10c0,4.1-0.3,7.3-0.7,9.7c-0.5,0.4-1,0.5-1.6,0.3C207.7,40.2,207.2,40.4,206.7,40.9z"/>
	<path d="M222.9,57.7c-0.3,0-0.8,0-1.4,0c-0.7,0-1.4,0-2.1,0s-1.4,0-2,0s-1,0-1.2,0c0.1-0.4,0.3-1.2,0.3-2.1c0.1-1,0.1-1.8,0.1-2.4
		c-0.3-0.1-0.6-0.1-0.8,0.1c-0.3,0.2-0.5,0.3-0.8,0.4c0,1.5,0,2.5,0,3.1c0,0.6,0,0.9-0.1,1.1c-0.1,0.1-0.3,0.2-0.7,0
		c-0.4-0.1-1-0.2-1.8-0.2c-0.4-2.2-0.7-5-0.9-8.5c-0.2-3.4-0.3-7-0.4-10.7c0-3.7,0-7.3,0.2-10.8c0.2-3.5,0.4-6.4,0.8-8.8
		c0.4-0.9,0.8-1.4,1.3-1.6c0.5-0.2,1-0.3,1.5-0.3c-0.1,0.9-0.3,2.7-0.5,5.5c-0.2,2.8-0.3,5.7-0.4,8.8c-0.1,3.1-0.1,6,0.1,8.6
		c0.1,2.7,0.4,4.3,0.8,4.9c0.5-0.1,0.9-0.1,1.4-0.1c0.5,0,0.9-0.1,1.4-0.3c0.9-4.4,1.3-8.8,1.2-13s-0.2-8.5-0.4-12.8
		c0-0.6-0.1-1.3-0.2-1.9c-0.1-0.6-0.1-1.3-0.1-1.8c0.3-0.1,0.9,0.3,1.7,1.2c0.9,0.9,1.7,2,2.6,3.3c0.9,1.3,1.7,2.6,2.4,3.8
		c0.7,1.3,1,2.2,1,2.7c0.1,1.7,0.1,4,0,7.1c-0.1,3.1-0.2,6.2-0.5,9.5c-0.2,3.2-0.6,6.3-1,9.1C224.1,54.7,223.6,56.6,222.9,57.7z"/>
	<path d="M230.6,30.5c-0.3,2.1-0.5,5.1-0.6,9.2c-0.1,4.1,0.1,6.9,0.5,8.4c0.2,0.2,0.5,0.2,0.9,0c0.4-0.2,0.7-0.2,0.9,0.1
		c0.1,1.3,0.1,2.7,0,4.1c-0.1,1.4-0.2,2.8-0.3,4c-0.3,0.7-1,1-2,0.9c-1.1-0.1-1.9-0.1-2.6,0c-0.1,0.2-0.3,0.1-0.6-0.2
		c-0.3-0.4-0.4-0.7-0.4-1.1c0-0.1,0-0.1,0,0c0.1-1.3,0.2-2.6,0.1-3.9c0-1.3,0-2.6,0.1-4l1.5-0.2c0-1.3,0.1-2.6,0.1-4
		c0-1.4,0-2.9,0-4.3l-0.6-8.6l0.1-0.1h0.2l0.6-0.4H230.6z M229,14.9c0.7,0,1.4,0.7,1.9,1.9c0.5,1.3,0.8,2.8,0.8,4.6
		c0,1.8-0.3,3.4-0.8,4.6S229.8,28,229,28s-1.4-0.6-1.9-1.9c-0.5-1.3-0.8-2.8-0.8-4.6c0-1.8,0.3-3.3,0.8-4.6
		C227.7,15.6,228.3,14.9,229,14.9z"/>
	<path d="M242,57.6c-0.2-0.2-0.5-0.8-0.7-1.8c-0.2-1-0.5-2-0.9-3c-0.3-1-0.7-1.9-1.2-2.7c-0.5-0.8-1-1.1-1.7-0.9c0,0.9,0,2.3,0,4.3
		c0,2,0.1,3.3,0.3,4.1l-2.1-0.3c-1.2-1.7-1.9-4.7-2.2-9.2c-0.3-4.5-0.4-9.1-0.2-13.9c0.2-4.8,0.6-9.1,1.2-12.8
		c0.6-3.8,1.2-5.8,1.8-6.2c0.3,1.5,0.5,3.3,0.8,5.3c0.3,2.1,0.6,4.1,0.9,6c0.3,1.9,0.7,3.6,1,5.1c0.4,1.4,0.8,2.3,1.4,2.6
		c0.4-0.9,0.5-3.3,0.5-7.3s-0.3-7.6-0.6-11c0.2-0.1,0.6,0.2,1.2,1.1c0.6,0.9,1.2,1.9,1.9,3.1c0.6,1.2,1.3,2.4,1.8,3.5
		c0.6,1.1,0.9,1.9,1.1,2.3c0.3,1.9,0.5,4.3,0.5,7.2s-0.2,6-0.5,9.1s-0.9,6.1-1.6,8.9C243.9,53.9,243,56.1,242,57.6z"/>
	<path d="M252.5,38c-0.2-1.2-0.5-2-1-2.3c-0.4-0.4-0.9-0.6-1.3-0.8c-0.7,3.7-1,7.3-0.8,11c0.2,3.7,0.6,5.6,1.1,5.8
		c0.5-0.2,0.9-0.7,1.2-1.3c0.3-0.6,0.5-1.2,0.8-1.6c-0.9,0.6-1.3,0.1-1.2-1.3c0.1-1.4,0.1-2.5,0.1-3.3c1.4-0.1,2.7-0.1,4.1,0
		c1.4,0.1,2.7,0.2,4.1,0.2c0,0.5-0.2,1.2-0.4,2.1c-0.2,0.9-0.4,1.4-0.5,1.8c-1.4,2.9-2.7,5-3.9,6.5c-1.2,1.4-3.1,2.5-5.5,3.1
		c-0.7-2.1-1.3-5.1-1.6-9c-0.3-3.9-0.5-7.9-0.4-12.2c0-4.2,0.3-8.3,0.6-12.2c0.4-3.9,0.9-7,1.6-9.3c2.1,1.9,4.2,4.6,6.2,8.3
		c2.1,3.7,3.4,8.6,3.9,14.6c-1.1,0-2.3,0-3.8,0.1C254.4,38.2,253.3,38.2,252.5,38z"/>
	<path d="M274.9,31.5c-0.3-1.6-0.8-2.6-1.4-3.1s-1.3-0.9-2-1.1c-1.1,4.9-1.5,9.8-1.1,14.6s0.9,7.4,1.6,7.7c0.7-0.3,1.3-0.9,1.8-1.8
		c0.5-0.9,0.8-1.6,1.1-2.1c-0.7,0.4-1.2,0.4-1.4,0c-0.2-0.4-0.4-0.9-0.4-1.7c0-0.7,0-1.5,0.1-2.3c0.1-0.8,0.1-1.5,0-2
		c2-0.2,4.1-0.2,6.1,0c2.1,0.2,4.1,0.3,6.1,0.3c-0.1,0.7-0.3,1.6-0.6,2.7s-0.6,1.9-0.8,2.4c-1,1.9-2,3.5-2.9,5
		c-0.9,1.4-1.9,2.6-2.9,3.6c-1,1-2.2,1.8-3.5,2.5c-1.3,0.7-2.9,1.2-4.7,1.6c-1.1-2.8-1.9-6.8-2.4-11.9c-0.5-5.1-0.7-10.5-0.6-16.2
		s0.4-11.1,0.9-16.3s1.3-9.3,2.3-12.3c1.6,1.3,3.2,2.8,4.8,4.6c1.6,1.8,3.1,4,4.5,6.5c1.4,2.5,2.6,5.4,3.6,8.6
		c1,3.2,1.8,6.8,2.2,10.8c-1.6,0-3.4,0.1-5.6,0.2S276.1,31.7,274.9,31.5z"/>
	<path d="M291.4,57.2c-0.2-1-0.4-2.3-0.9-3.9c-0.4-1.6-0.8-2.6-1.2-3.1c-0.1,0.8,0,1.9,0.1,3.4c0.2,1.5,0.3,2.6,0.3,3.3
		c-0.4,0.4-0.9,0.6-1.4,0.3c-0.5-0.2-1-0.2-1.4,0.2c-0.5-2.6-0.9-5.9-1.1-9.8c-0.2-3.9-0.3-7.9-0.2-11.9c0-4,0.2-7.8,0.5-11.4
		c0.3-3.6,0.7-6.4,1.3-8.5c0.5-0.5,1.2-0.6,2.1-0.4c0.9,0.3,1.9,0.9,2.9,1.8c1,0.9,2,2,3,3.4s1.7,2.9,2.3,4.6
		c-0.4,3.6-0.7,6.6-1.2,9.1c-0.4,2.5-1.7,5.5-3.8,9.2c0.8,1.6,1.7,3.7,2.8,6.2c1.1,2.5,1.9,5,2.3,7.5c-0.2,0.3-0.5,0.4-1.1,0.4
		c-0.6,0-1.2,0-1.9-0.1c-0.7-0.1-1.4-0.1-2.1-0.3C292.2,57.4,291.7,57.2,291.4,57.2z M289.2,25.8c-0.4,3.2-0.6,5.5-0.5,7.1
		c0.1,1.6,0.4,2.9,0.9,4.1c1.1-2.2,1.9-3.6,2.4-4.4c0.5-0.8,0.7-1.4,0.7-1.8c-0.1-0.4-0.4-0.9-1-1.5
		C291.1,28.7,290.3,27.6,289.2,25.8z"/>
	<path d="M311.4,44.2c-1.6,0.2-3.2,0.3-4.9,0.2c-1.7-0.1-3.3-0.3-4.9-0.8c0,1.1,0.1,2.3,0.2,3.6c0.1,1.2,0.6,2.4,1.3,3.4
		c0.3,0.1,0.5-0.1,0.8-0.7c0.3-0.6,0.5-1.4,0.6-2.4c0.9-0.1,1.8-0.1,2.8-0.1c0.9,0.1,1.8,0.1,2.8-0.1c0.1,0.4,0.1,0.9,0,1.5
		c-0.1,0.5-0.2,1-0.3,1.3c-1,2.4-2.2,4.2-3.6,5.1c-1.4,1-2.8,1.6-4.2,1.8c-1-2.1-1.7-4.7-2.2-7.8c-0.5-3.1-0.8-6.3-0.8-9.6
		c0-3.3,0.2-6.5,0.6-9.6s1.2-5.7,2.2-7.8c0.4-1,0.8-1.8,1.4-2.4c0.5-0.6,0.8-0.8,0.9-0.8c1.7,2.4,3.4,5.5,4.9,9.2
		c1.5,3.7,2.4,7.9,2.7,12.6c0,0.7,0,1.2,0,1.6C311.4,43.1,311.4,43.6,311.4,44.2z M300.6,38.6c0.6-0.1,1.4-0.1,2.3,0.1
		c0.9,0.2,1.6,0.1,2.2-0.2c0.1-1.8-0.2-3.9-1.1-6.2c-0.8-2.4-1.5-3.4-1.9-2.9c-0.4-0.2-0.6-0.1-0.8,0.4c-0.2,0.8-0.4,2.3-0.7,4.4
		C300.3,36.4,300.3,37.8,300.6,38.6z"/>
	<path d="M325.5,57.7c-1,0-2,0-3.1,0c-1.1,0-2.1,0-3.1,0c0-0.4,0.1-0.9,0.1-1.4c0.1-0.5,0.1-1,0-1.4h-3.7c-0.1,0.4-0.1,0.9,0,1.4
		c0.1,0.5,0.1,1,0.1,1.4h-2.5c-0.6-3.7-1-7.8-1.1-12.2c-0.2-4.4,0-8.5,0.6-12.2c0.4-2.9,0.9-6.4,1.7-10.4c0.8-4.1,1.6-6.6,2.4-7.8
		c2.2,2.3,4,4.7,5.3,7c1.3,2.3,2.2,4.9,2.8,7.6c0.6,2.8,1,5.9,1.1,9.3c0.1,3.4,0.2,7.4,0.1,11.9c-0.1,1.3-0.2,2.5-0.3,3.5
		C325.9,55.4,325.7,56.5,325.5,57.7z M320.6,47.2c-0.1,0-0.2-0.9-0.2-2.6s-0.2-3.7-0.4-5.9c-0.2-2.2-0.7-4.3-1.3-6.4
		c-0.6-2.1-1.5-3.5-2.7-4.3c-0.1-0.1-0.3,0.6-0.8,1.9c-0.4,1.4-0.8,3-1.1,5c-0.3,2-0.5,4.1-0.6,6.4c-0.1,2.2,0.2,4.2,0.8,5.9
		L320.6,47.2z"/>
	<path d="M333.5,40.9c0.6,1.2,0.8,3.8,0.7,7.7c-0.1,3.9-0.5,6.7-1.1,8.5c-1.3,0.3-2.6,0.5-4.1,0.4l-0.2-0.4c0.4-2.4,0.8-5.1,1-7.8
		c0.3-2.8,0.3-5.6,0.2-8.3c-0.5-0.1-1-0.2-1.5-0.1c-0.6,0-1.1,0-1.5,0c0-3.9,0-8,0.2-12.3s-0.1-8.3-0.6-12.2
		c-0.2-0.4-0.3-0.8-0.1-1.1c0.7-0.4,1.4-0.5,2.2-0.4c0.8,0.1,1.6,0.3,2.3,0.7c1,0.6,2.1,1.3,3.1,2.1c1,0.8,2,1.5,3.1,2.1l0.1,0.6
		c0.1,2.6,0.1,5.9,0.1,10c0,4.1-0.3,7.3-0.7,9.7c-0.5,0.4-1,0.5-1.6,0.3C334.6,40.2,334,40.4,333.5,40.9z"/>
</g>
</svg>
