<svg version="1.1" id="Слой_1" xmlns="http://www.w3.org/2000/svg" xmlns:xlink="http://www.w3.org/1999/xlink" x="0px" y="0px"
	 viewBox="0 0 162 14" style="enable-background:new 0 0 162 14;" xml:space="preserve">
	<g fill="none" fill-rule="evenodd" stroke="currentColor" stroke-width="0.3" class="lines">
		<path d="M3,10.6V2.1h1.3v7.3H9v1.2H3z"/>
		<path d="M12.7,10.7c-0.5,0-0.9-0.1-1.3-0.3c-0.4-0.2-0.7-0.4-1-0.7c-0.3-0.3-0.5-0.6-0.7-1C9.6,8.3,9.5,7.9,9.5,7.5
			c0-0.4,0.1-0.9,0.2-1.3c0.2-0.4,0.4-0.7,0.7-1c0.3-0.3,0.6-0.5,1-0.7c0.4-0.2,0.8-0.3,1.3-0.3c0.5,0,0.9,0.1,1.3,0.3s0.7,0.4,1,0.7
			c0.3,0.3,0.5,0.6,0.6,1c0.1,0.4,0.2,0.8,0.2,1.2c0,0.1,0,0.2,0,0.3s0,0.2,0,0.2h-5c0,0.3,0.1,0.5,0.2,0.8c0.1,0.2,0.2,0.4,0.4,0.6
			c0.2,0.2,0.4,0.3,0.6,0.4c0.2,0.1,0.4,0.1,0.7,0.1c0.2,0,0.3,0,0.5-0.1c0.2,0,0.3-0.1,0.5-0.2s0.3-0.2,0.4-0.3
			c0.1-0.1,0.2-0.3,0.3-0.4l1.1,0.3c-0.2,0.5-0.6,0.9-1.1,1.2S13.4,10.7,12.7,10.7z M14.6,7c0-0.3-0.1-0.5-0.2-0.7
			C14.3,6,14.2,5.8,14,5.7s-0.4-0.3-0.6-0.4c-0.2-0.1-0.5-0.1-0.7-0.1c-0.2,0-0.5,0-0.7,0.1c-0.2,0.1-0.4,0.2-0.6,0.4S11.1,6,11,6.2
			c-0.1,0.2-0.2,0.5-0.2,0.7H14.6z"/>
		<path d="M20.5,10.3c-0.2,0.1-0.4,0.2-0.7,0.3c-0.3,0.1-0.6,0.1-0.9,0.1c-0.2,0-0.4,0-0.6-0.1c-0.2-0.1-0.3-0.1-0.5-0.3
			c-0.1-0.1-0.3-0.3-0.3-0.4c-0.1-0.2-0.1-0.4-0.1-0.7V5.3h-0.8v-1h0.8V2.2h1.3v2.1H20v1h-1.4v3.5c0,0.2,0.1,0.4,0.2,0.5
			c0.1,0.1,0.3,0.1,0.5,0.1s0.4,0,0.5-0.1c0.2-0.1,0.3-0.1,0.4-0.2L20.5,10.3z"/>
		<path d="M23.7,10.7c-0.5,0-1-0.1-1.5-0.2s-0.9-0.4-1.3-0.7l0.5-0.8c0.4,0.3,0.7,0.5,1.1,0.6s0.7,0.2,1.1,0.2c0.4,0,0.7-0.1,0.9-0.2
			C24.8,9.4,25,9.2,25,8.9c0-0.3-0.1-0.5-0.4-0.6c-0.3-0.1-0.7-0.3-1.2-0.4c-0.4-0.1-0.7-0.2-1-0.3c-0.3-0.1-0.5-0.2-0.7-0.3
			S21.4,7,21.3,6.8c-0.1-0.2-0.1-0.4-0.1-0.6c0-0.3,0.1-0.6,0.2-0.9c0.1-0.2,0.3-0.5,0.5-0.6c0.2-0.2,0.5-0.3,0.8-0.4
			c0.3-0.1,0.6-0.1,1-0.1c0.5,0,0.9,0.1,1.3,0.2C25.3,4.6,25.7,4.8,26,5l-0.6,0.8c-0.6-0.5-1.2-0.7-1.9-0.7c-0.3,0-0.6,0.1-0.8,0.2
			c-0.2,0.1-0.3,0.4-0.3,0.7c0,0.1,0,0.2,0.1,0.3c0,0.1,0.1,0.2,0.2,0.2c0.1,0.1,0.2,0.1,0.4,0.2s0.4,0.1,0.6,0.2
			c0.4,0.1,0.8,0.2,1.1,0.3c0.3,0.1,0.6,0.2,0.8,0.4c0.2,0.1,0.3,0.3,0.4,0.5c0.1,0.2,0.1,0.4,0.1,0.7c0,0.6-0.2,1.1-0.7,1.4
			C25.1,10.5,24.5,10.7,23.7,10.7z"/>
		<path d="M37.7,10.6V4.5l-2.5,4.6h-0.7l-2.5-4.6v6.1h-1.3V2.1h1.4l2.8,5.2l2.8-5.2H39v8.5H37.7z"/>
		<path d="M42.4,10.7c-0.3,0-0.6,0-0.8-0.2c-0.3-0.1-0.5-0.2-0.7-0.4c-0.2-0.2-0.3-0.4-0.4-0.6c-0.1-0.2-0.2-0.5-0.2-0.8
			c0-0.3,0.1-0.6,0.2-0.8c0.1-0.2,0.3-0.4,0.5-0.6c0.2-0.2,0.5-0.3,0.8-0.4c0.3-0.1,0.7-0.1,1.1-0.1c0.3,0,0.6,0,0.9,0.1
			C44.1,6.9,44.4,7,44.6,7V6.6c0-0.5-0.1-0.8-0.4-1.1c-0.3-0.3-0.6-0.4-1.1-0.4c-0.3,0-0.7,0.1-1,0.2c-0.3,0.1-0.7,0.3-1,0.5L40.7,5
			c0.8-0.5,1.6-0.8,2.5-0.8c0.9,0,1.5,0.2,2,0.7C45.7,5.3,46,5.9,46,6.8V9c0,0.3,0.1,0.4,0.3,0.4v1.1c-0.1,0-0.2,0-0.3,0
			s-0.2,0-0.3,0c-0.3,0-0.5-0.1-0.6-0.2c-0.1-0.1-0.2-0.3-0.3-0.5l0-0.4c-0.3,0.4-0.6,0.6-1,0.8C43.4,10.6,42.9,10.7,42.4,10.7z
			M42.8,9.7c0.3,0,0.6-0.1,0.9-0.2c0.3-0.1,0.5-0.3,0.7-0.5c0.2-0.1,0.3-0.3,0.3-0.5V7.8c-0.2-0.1-0.5-0.2-0.7-0.2s-0.5-0.1-0.7-0.1
			c-0.5,0-0.9,0.1-1.2,0.3c-0.3,0.2-0.5,0.5-0.5,0.8c0,0.3,0.1,0.6,0.3,0.8C42.2,9.6,42.4,9.7,42.8,9.7z"/>
		<path d="M51.9,10.6l-2-2.9l-1,1v1.9h-1.3V1.8h1.3v5.6l2.9-3.1h1.4L50.8,7l2.6,3.6H51.9z"/>
		<path d="M57,10.7c-0.5,0-0.9-0.1-1.3-0.3c-0.4-0.2-0.7-0.4-1-0.7c-0.3-0.3-0.5-0.6-0.7-1c-0.2-0.4-0.2-0.8-0.2-1.2
			c0-0.4,0.1-0.9,0.2-1.3c0.2-0.4,0.4-0.7,0.7-1c0.3-0.3,0.6-0.5,1-0.7C56,4.3,56.5,4.2,57,4.2c0.5,0,0.9,0.1,1.3,0.3s0.7,0.4,1,0.7
			c0.3,0.3,0.5,0.6,0.6,1c0.1,0.4,0.2,0.8,0.2,1.2c0,0.1,0,0.2,0,0.3s0,0.2,0,0.2h-5c0,0.3,0.1,0.5,0.2,0.8c0.1,0.2,0.2,0.4,0.4,0.6
			c0.2,0.2,0.4,0.3,0.6,0.4c0.2,0.1,0.4,0.1,0.7,0.1c0.2,0,0.3,0,0.5-0.1c0.2,0,0.3-0.1,0.5-0.2s0.3-0.2,0.4-0.3
			c0.1-0.1,0.2-0.3,0.3-0.4l1.1,0.3c-0.2,0.5-0.6,0.9-1.1,1.2S57.6,10.7,57,10.7z M58.9,7c0-0.3-0.1-0.5-0.2-0.7
			c-0.1-0.2-0.2-0.4-0.4-0.6s-0.4-0.3-0.6-0.4c-0.2-0.1-0.5-0.1-0.7-0.1c-0.2,0-0.5,0-0.7,0.1c-0.2,0.1-0.4,0.2-0.6,0.4
			S55.4,6,55.3,6.2c-0.1,0.2-0.2,0.5-0.2,0.7H58.9z"/>
		<path d="M69.4,4.1c-0.1-0.1-0.2-0.2-0.3-0.3s-0.3-0.2-0.5-0.3c-0.2-0.1-0.4-0.2-0.7-0.2s-0.5-0.1-0.8-0.1c-0.6,0-1,0.1-1.3,0.3
			S65.5,4,65.5,4.4c0,0.2,0,0.4,0.1,0.5C65.7,5,65.8,5.1,66,5.2c0.2,0.1,0.4,0.2,0.7,0.3c0.3,0.1,0.6,0.2,0.9,0.2
			C68,5.9,68.4,6,68.7,6.1s0.6,0.3,0.9,0.5c0.2,0.2,0.4,0.4,0.6,0.7c0.1,0.3,0.2,0.6,0.2,1c0,0.4-0.1,0.8-0.2,1.1
			c-0.2,0.3-0.4,0.6-0.7,0.8c-0.3,0.2-0.6,0.3-1,0.4s-0.8,0.1-1.2,0.1c-0.6,0-1.3-0.1-1.9-0.3c-0.6-0.2-1.2-0.5-1.6-0.9l0.6-1.2
			c0.1,0.1,0.3,0.2,0.5,0.3C65,8.8,65.2,9,65.5,9.1c0.3,0.1,0.5,0.2,0.8,0.3c0.3,0.1,0.6,0.1,0.9,0.1c0.5,0,0.9-0.1,1.2-0.3
			c0.3-0.2,0.4-0.5,0.4-0.8c0-0.2-0.1-0.4-0.2-0.5c-0.1-0.1-0.3-0.3-0.5-0.4c-0.2-0.1-0.4-0.2-0.7-0.3S67,7,66.6,6.9
			c-0.4-0.1-0.8-0.2-1.1-0.4c-0.3-0.1-0.6-0.3-0.8-0.5s-0.4-0.4-0.5-0.6s-0.2-0.5-0.2-0.9c0-0.4,0.1-0.8,0.2-1.1
			c0.2-0.3,0.4-0.6,0.7-0.8c0.3-0.2,0.6-0.4,1-0.5S66.7,2,67.2,2c0.6,0,1.1,0.1,1.6,0.3C69.3,2.5,69.7,2.7,70,3L69.4,4.1z"/>
		<path d="M74.4,10.7c-0.5,0-0.9-0.1-1.3-0.3c-0.4-0.2-0.7-0.4-1-0.7c-0.3-0.3-0.5-0.6-0.6-1c-0.2-0.4-0.2-0.8-0.2-1.2
			c0-0.4,0.1-0.8,0.2-1.2c0.2-0.4,0.4-0.7,0.7-1c0.3-0.3,0.6-0.5,1-0.7s0.8-0.3,1.3-0.3c0.5,0,0.9,0.1,1.3,0.3s0.7,0.4,1,0.7
			c0.3,0.3,0.5,0.6,0.7,1c0.2,0.4,0.2,0.8,0.2,1.2c0,0.4-0.1,0.8-0.2,1.2c-0.2,0.4-0.4,0.7-0.7,1c-0.3,0.3-0.6,0.5-1,0.7
			C75.3,10.6,74.9,10.7,74.4,10.7z M72.5,7.5c0,0.3,0,0.6,0.1,0.8C72.7,8.6,72.9,8.8,73,9c0.2,0.2,0.4,0.3,0.6,0.4s0.5,0.2,0.7,0.2
			c0.3,0,0.5-0.1,0.7-0.2s0.4-0.3,0.6-0.5c0.2-0.2,0.3-0.4,0.4-0.7c0.1-0.3,0.1-0.5,0.1-0.8c0-0.3,0-0.6-0.1-0.8
			c-0.1-0.3-0.2-0.5-0.4-0.7c-0.2-0.2-0.4-0.3-0.6-0.5c-0.2-0.1-0.5-0.2-0.7-0.2c-0.3,0-0.5,0.1-0.7,0.2c-0.2,0.1-0.4,0.3-0.6,0.5
			c-0.2,0.2-0.3,0.4-0.4,0.7C72.6,6.9,72.5,7.2,72.5,7.5z"/>
		<path d="M88.4,10.6h-1.3V7.1c0-0.6-0.1-1-0.3-1.3c-0.2-0.3-0.5-0.4-0.8-0.4c-0.4,0-0.7,0.1-1,0.4c-0.3,0.3-0.5,0.6-0.7,1.1v3.7
			h-1.3V7.1c0-0.6-0.1-1-0.3-1.3c-0.2-0.3-0.5-0.4-0.8-0.4c-0.4,0-0.7,0.1-1,0.4c-0.3,0.3-0.5,0.6-0.7,1.1v3.7h-1.3V4.3H80v1.3
			c0.2-0.4,0.6-0.8,1-1c0.4-0.2,0.9-0.4,1.4-0.4c0.5,0,0.9,0.1,1.2,0.4c0.3,0.3,0.5,0.6,0.6,1c0.3-0.5,0.6-0.8,1-1.1
			c0.4-0.2,0.9-0.4,1.4-0.4c0.4,0,0.7,0.1,0.9,0.2S87.9,4.7,88,5c0.1,0.2,0.2,0.5,0.3,0.8c0.1,0.3,0.1,0.6,0.1,1V10.6z"/>
		<path d="M92.8,10.7c-0.5,0-0.9-0.1-1.3-0.3c-0.4-0.2-0.7-0.4-1-0.7s-0.5-0.6-0.7-1c-0.2-0.4-0.2-0.8-0.2-1.2c0-0.4,0.1-0.9,0.2-1.3
			c0.2-0.4,0.4-0.7,0.7-1s0.6-0.5,1-0.7c0.4-0.2,0.8-0.3,1.3-0.3c0.5,0,0.9,0.1,1.3,0.3c0.4,0.2,0.7,0.4,1,0.7s0.5,0.6,0.6,1
			C95.9,6.6,96,7,96,7.4c0,0.1,0,0.2,0,0.3s0,0.2,0,0.2h-5c0,0.3,0.1,0.5,0.2,0.8c0.1,0.2,0.2,0.4,0.4,0.6c0.2,0.2,0.4,0.3,0.6,0.4
			c0.2,0.1,0.5,0.1,0.7,0.1c0.2,0,0.3,0,0.5-0.1s0.3-0.1,0.5-0.2c0.1-0.1,0.3-0.2,0.4-0.3c0.1-0.1,0.2-0.3,0.3-0.4l1.1,0.3
			c-0.2,0.5-0.6,0.9-1.1,1.2S93.4,10.7,92.8,10.7z M94.7,7c0-0.3-0.1-0.5-0.2-0.7C94.4,6,94.2,5.8,94,5.7s-0.4-0.3-0.6-0.4
			c-0.2-0.1-0.5-0.1-0.7-0.1c-0.2,0-0.5,0-0.7,0.1c-0.2,0.1-0.4,0.2-0.6,0.4S91.2,6,91.1,6.2C91,6.5,90.9,6.7,90.9,7H94.7z"/>
		<path d="M100.5,10.3c-0.2,0.1-0.4,0.2-0.7,0.3c-0.3,0.1-0.6,0.1-0.9,0.1c-0.2,0-0.4,0-0.6-0.1c-0.2-0.1-0.3-0.1-0.5-0.3
			c-0.1-0.1-0.3-0.3-0.3-0.4c-0.1-0.2-0.1-0.4-0.1-0.7V5.3h-0.8v-1h0.8V2.2h1.3v2.1h1.4v1h-1.4v3.5c0,0.2,0.1,0.4,0.2,0.5
			c0.1,0.1,0.3,0.1,0.5,0.1c0.2,0,0.4,0,0.5-0.1c0.2-0.1,0.3-0.1,0.4-0.2L100.5,10.3z"/>
		<path d="M107.1,10.6h-1.3V7.1c0-0.6-0.1-1-0.3-1.3s-0.5-0.4-0.9-0.4c-0.2,0-0.4,0-0.6,0.1c-0.2,0.1-0.4,0.2-0.5,0.3
			s-0.3,0.3-0.4,0.5s-0.2,0.4-0.3,0.6v3.7h-1.3V1.8h1.3v3.7c0.2-0.4,0.6-0.8,1-1c0.4-0.2,0.9-0.4,1.3-0.4c0.4,0,0.7,0.1,1,0.2
			c0.3,0.1,0.5,0.3,0.6,0.6c0.2,0.2,0.3,0.5,0.3,0.8c0.1,0.3,0.1,0.6,0.1,1V10.6z"/>
		<path d="M108.6,3.3V1.8h1.3v1.5H108.6z M108.6,10.6V4.3h1.3v6.3H108.6z"/>
		<path d="M117.1,10.6h-1.3V7.1c0-0.6-0.1-1-0.3-1.3c-0.2-0.3-0.5-0.4-0.8-0.4c-0.2,0-0.4,0-0.6,0.1c-0.2,0.1-0.4,0.2-0.5,0.3
			s-0.3,0.3-0.5,0.5s-0.2,0.4-0.3,0.6v3.7h-1.3V4.3h1.2v1.3c0.2-0.4,0.6-0.8,1-1s1-0.4,1.5-0.4c0.4,0,0.7,0.1,0.9,0.2
			c0.2,0.1,0.4,0.3,0.6,0.6c0.1,0.2,0.2,0.5,0.3,0.8c0.1,0.3,0.1,0.6,0.1,1V10.6z"/>
		<path d="M121.2,10.6c-0.4,0-0.8-0.1-1.2-0.3c-0.4-0.2-0.7-0.4-0.9-0.7c-0.3-0.3-0.4-0.6-0.6-1c-0.1-0.4-0.2-0.8-0.2-1.2
			c0-0.4,0.1-0.9,0.2-1.3c0.1-0.4,0.3-0.7,0.6-1s0.6-0.5,0.9-0.7c0.4-0.2,0.8-0.3,1.2-0.3c0.5,0,0.9,0.1,1.3,0.4
			c0.4,0.2,0.7,0.6,0.9,0.9V4.3h1.2v6.1c0,0.5-0.1,0.9-0.3,1.2c-0.2,0.4-0.4,0.6-0.7,0.9s-0.7,0.4-1.1,0.6c-0.4,0.1-0.8,0.2-1.3,0.2
			c-0.7,0-1.3-0.1-1.7-0.4c-0.5-0.2-0.8-0.6-1.2-1l0.7-0.7c0.2,0.3,0.5,0.6,0.9,0.8c0.4,0.2,0.8,0.3,1.2,0.3c0.3,0,0.5,0,0.8-0.1
			c0.2-0.1,0.5-0.2,0.6-0.3c0.2-0.2,0.3-0.3,0.4-0.6c0.1-0.2,0.2-0.5,0.2-0.8v-1c-0.2,0.4-0.5,0.7-0.9,0.9S121.6,10.6,121.2,10.6z
			M121.6,9.6c0.2,0,0.4,0,0.6-0.1c0.2-0.1,0.4-0.2,0.5-0.3s0.3-0.2,0.4-0.4c0.1-0.1,0.2-0.3,0.2-0.5V6.7c-0.1-0.2-0.2-0.4-0.3-0.5
			s-0.3-0.3-0.4-0.4s-0.3-0.2-0.5-0.3c-0.2-0.1-0.4-0.1-0.6-0.1c-0.3,0-0.5,0.1-0.8,0.2c-0.2,0.1-0.4,0.3-0.6,0.5s-0.3,0.4-0.4,0.7
			s-0.1,0.5-0.1,0.8c0,0.3,0,0.6,0.1,0.8c0.1,0.3,0.2,0.5,0.4,0.7c0.2,0.2,0.4,0.3,0.6,0.5S121.3,9.6,121.6,9.6z"/>
		<path d="M135.3,9.5c-0.7,0.7-1.5,1.1-2.5,1.1c-0.6,0-1.1-0.1-1.6-0.4c-0.5-0.2-0.9-0.6-1.3-1c-0.4-0.4-0.6-0.9-0.8-1.4
			c-0.2-0.5-0.3-1.1-0.3-1.7s0.1-1.1,0.3-1.6c0.2-0.5,0.5-1,0.8-1.4c0.4-0.4,0.8-0.7,1.3-0.9c0.5-0.2,1-0.3,1.6-0.3
			c0.8,0,1.5,0.2,2.1,0.5c0.6,0.3,1,0.8,1.2,1.4l-1,0.7c-0.2-0.5-0.6-0.8-1-1c-0.4-0.2-0.9-0.3-1.3-0.3c-0.4,0-0.8,0.1-1.1,0.3
			c-0.3,0.2-0.6,0.4-0.8,0.7c-0.2,0.3-0.4,0.6-0.5,1s-0.2,0.8-0.2,1.2c0,0.4,0.1,0.8,0.2,1.2c0.1,0.4,0.3,0.7,0.6,1
			c0.2,0.3,0.5,0.5,0.9,0.7c0.3,0.2,0.7,0.2,1.1,0.2c0.4,0,0.8-0.1,1.2-0.3c0.4-0.2,0.8-0.5,1.1-0.9V7.3h-1.8v-1h2.9v4.3h-1.1V9.5z"
			/>
		<path d="M141.4,5.5c-0.5,0-1,0.1-1.4,0.4c-0.4,0.2-0.7,0.5-0.8,0.9v3.8h-1.3V4.3h1.2v1.4c0.2-0.4,0.5-0.8,0.8-1s0.7-0.4,1.1-0.4
			c0.1,0,0.1,0,0.2,0c0.1,0,0.1,0,0.1,0V5.5z"/>
		<path d="M145.2,10.7c-0.5,0-0.9-0.1-1.3-0.3s-0.7-0.4-1-0.7c-0.3-0.3-0.5-0.6-0.7-1c-0.2-0.4-0.2-0.8-0.2-1.2
			c0-0.4,0.1-0.9,0.2-1.3c0.2-0.4,0.4-0.7,0.7-1c0.3-0.3,0.6-0.5,1-0.7s0.8-0.3,1.3-0.3c0.5,0,0.9,0.1,1.3,0.3c0.4,0.2,0.7,0.4,1,0.7
			c0.3,0.3,0.5,0.6,0.6,1c0.1,0.4,0.2,0.8,0.2,1.2c0,0.1,0,0.2,0,0.3s0,0.2,0,0.2h-5c0,0.3,0.1,0.5,0.2,0.8c0.1,0.2,0.2,0.4,0.4,0.6
			c0.2,0.2,0.4,0.3,0.6,0.4c0.2,0.1,0.4,0.1,0.7,0.1c0.2,0,0.3,0,0.5-0.1c0.2,0,0.3-0.1,0.5-0.2c0.1-0.1,0.3-0.2,0.4-0.3
			s0.2-0.3,0.3-0.4l1.1,0.3c-0.2,0.5-0.6,0.9-1.1,1.2S145.8,10.7,145.2,10.7z M147.1,7c0-0.3-0.1-0.5-0.2-0.7
			c-0.1-0.2-0.2-0.4-0.4-0.6s-0.4-0.3-0.6-0.4c-0.2-0.1-0.5-0.1-0.7-0.1s-0.5,0-0.7,0.1c-0.2,0.1-0.4,0.2-0.6,0.4s-0.3,0.3-0.4,0.6
			c-0.1,0.2-0.2,0.5-0.2,0.7H147.1z"/>
		<path d="M151.1,10.7c-0.3,0-0.6,0-0.8-0.2c-0.3-0.1-0.5-0.2-0.7-0.4c-0.2-0.2-0.3-0.4-0.4-0.6C149,9.3,149,9,149,8.7
			c0-0.3,0.1-0.6,0.2-0.8c0.1-0.2,0.3-0.4,0.5-0.6c0.2-0.2,0.5-0.3,0.8-0.4c0.3-0.1,0.7-0.1,1.1-0.1c0.3,0,0.6,0,0.9,0.1
			c0.3,0.1,0.5,0.1,0.8,0.2V6.6c0-0.5-0.1-0.8-0.4-1.1c-0.3-0.3-0.6-0.4-1.1-0.4c-0.3,0-0.7,0.1-1,0.2c-0.3,0.1-0.7,0.3-1,0.5
			L149.4,5c0.8-0.5,1.6-0.8,2.5-0.8c0.9,0,1.5,0.2,2,0.7c0.5,0.4,0.7,1.1,0.7,1.9V9c0,0.3,0.1,0.4,0.3,0.4v1.1c-0.1,0-0.2,0-0.3,0
			s-0.2,0-0.3,0c-0.3,0-0.5-0.1-0.6-0.2c-0.1-0.1-0.2-0.3-0.3-0.5l0-0.4c-0.3,0.4-0.6,0.6-1,0.8C152,10.6,151.6,10.7,151.1,10.7z
			M151.5,9.7c0.3,0,0.6-0.1,0.9-0.2c0.3-0.1,0.5-0.3,0.7-0.5c0.2-0.1,0.3-0.3,0.3-0.5V7.8c-0.2-0.1-0.5-0.2-0.7-0.2
			s-0.5-0.1-0.7-0.1c-0.5,0-0.9,0.1-1.2,0.3c-0.3,0.2-0.5,0.5-0.5,0.8c0,0.3,0.1,0.6,0.3,0.8S151.1,9.7,151.5,9.7z"/>
		<path d="M159.7,10.3c-0.2,0.1-0.4,0.2-0.7,0.3c-0.3,0.1-0.6,0.1-0.9,0.1c-0.2,0-0.4,0-0.6-0.1c-0.2-0.1-0.3-0.1-0.5-0.3
			c-0.1-0.1-0.3-0.3-0.3-0.4c-0.1-0.2-0.1-0.4-0.1-0.7V5.3h-0.8v-1h0.8V2.2h1.3v2.1h1.4v1h-1.4v3.5c0,0.2,0.1,0.4,0.2,0.5
			c0.1,0.1,0.3,0.1,0.5,0.1c0.2,0,0.4,0,0.5-0.1c0.2-0.1,0.3-0.1,0.4-0.2L159.7,10.3z"/>
	</g>
</svg>
